<svg style="background-color: white;" viewBox="0 0 200 200" xmlns="http://www.w3.org/2000/svg">
  <path fill="#164E63" d="M26.6,-42.5C39.7,-38.5,59.1,-41.9,64,-36.1C68.9,-30.2,59.2,-15.1,59.1,-0.1C58.9,14.9,68.3,29.9,65.8,39.8C63.2,49.8,48.8,54.7,35.9,52.1C23,49.5,11.5,39.3,-0.5,40.3C-12.5,41.2,-25.1,53.2,-38.8,56.2C-52.5,59.3,-67.4,53.4,-70.3,42.6C-73.2,31.7,-64,15.8,-56.6,4.3C-49.1,-7.2,-43.3,-14.4,-37.8,-20.8C-32.3,-27.2,-27.2,-32.7,-21,-40.7C-14.7,-48.7,-7.4,-59.1,-0.3,-58.6C6.7,-58.1,13.5,-46.6,26.6,-42.5Z" transform="translate(25 25)" />
</svg>
