<svg style="background-color: white;" viewBox="0 0 200 200" xmlns="http://www.w3.org/2000/svg">
        <path fill="#164E63" d="M41.5,-70C55.9,-63.5,71.1,-56.7,76.9,-45C82.7,-33.2,79,-16.6,77.2,-1C75.4,14.6,75.6,29.1,69.6,40.6C63.7,52.1,51.7,60.5,39.1,67.6C26.5,74.8,13.2,80.7,-1.6,83.5C-16.4,86.3,-32.9,85.8,-46.7,79.4C-60.5,72.9,-71.7,60.4,-76.2,46.1C-80.6,31.9,-78.4,16,-78.8,-0.2C-79.1,-16.4,-82.2,-32.8,-76,-44.1C-69.8,-55.3,-54.4,-61.4,-40.2,-68C-26,-74.5,-13,-81.6,0.3,-82C13.5,-82.5,27.1,-76.5,41.5,-70Z" transform="translate(25 25)" />
      </svg>
